<svg width="2048" height="380" viewBox="0 0 2048 380" fill="none" xmlns="http://www.w3.org/2000/svg">
<path d="M178.78 292.02C152.86 292.02 131.87 287.02 115.82 277.02C99.77 267.02 91.75 252.64 91.75 233.88C91.75 218.58 97.68 205.68 109.53 195.18C121.38 184.69 141.13 178.09 168.78 175.37L248.4 167.59V165.74C248.4 148.46 235.19 139.82 208.78 139.82C196.68 139.82 187.24 141.61 180.45 145.19C173.66 148.77 169.03 154.51 166.56 162.41L94.35 157.23C97.31 145.88 103.11 135.38 111.76 125.75C120.4 116.12 132.74 108.34 148.79 102.42C164.84 96.49 185.2 93.53 209.89 93.53C245.68 93.53 273.03 99.83 291.92 112.42C310.81 125.01 320.25 143.41 320.25 167.6V230.93C320.25 240.07 320.31 247.72 320.44 253.89C320.56 260.06 320.81 265.8 321.18 271.11C321.55 276.42 322.11 282.16 322.85 288.33H254.34L252.86 272.04C244.22 279.2 233.48 284.32 220.64 287.41C207.8 290.49 193.85 292.04 178.79 292.04L178.78 292.02ZM164.7 232.4C164.7 237.34 166.98 241.35 171.55 244.44C176.11 247.53 183.71 249.07 194.32 249.07C203.21 249.07 211.78 248.21 220.06 246.48C228.33 244.76 235.12 241.79 240.43 237.59C245.74 233.4 248.39 227.72 248.39 220.56V207.6L186.92 215.38C180.01 216.37 174.57 218.1 170.63 220.57C166.68 223.04 164.7 226.99 164.7 232.42V232.4Z" fill="black"/>
<path d="M356.898 349.42V97.97H427.628V117.23C437.258 109.58 448.608 103.71 461.698 99.64C474.778 95.57 488.358 93.53 502.438 93.53C515.518 93.53 528.788 95.38 542.248 99.08C555.698 102.78 567.988 108.59 579.098 116.49C590.208 124.39 599.158 134.7 605.948 147.41C612.738 160.13 616.128 175.37 616.128 193.15C616.128 210.93 612.608 226.11 605.578 238.7C598.538 251.29 589.408 261.6 578.178 269.62C566.938 277.65 554.658 283.51 541.328 287.21C527.998 290.91 515.038 292.76 502.448 292.76C489.118 292.76 476.028 291.03 463.198 287.58C450.358 284.13 438.878 278.69 428.758 271.29V349.43H356.918L356.898 349.42ZM428.738 196.11C428.738 207.47 431.638 216.66 437.438 223.7C443.238 230.74 450.638 235.86 459.658 239.07C468.668 242.28 477.738 243.88 486.878 243.88C497.488 243.88 507.058 241.97 515.578 238.14C524.098 234.32 530.948 228.76 536.128 221.48C541.308 214.2 543.908 205.37 543.908 195V191.3C543.908 175.5 538.358 163.4 527.248 155.01C516.138 146.62 502.678 142.42 486.878 142.42C477.738 142.42 468.668 143.96 459.658 147.05C450.638 150.14 443.238 155.2 437.438 162.23C431.638 169.27 428.738 178.59 428.738 190.19V196.12V196.11Z" fill="black"/>
<path d="M646.121 349.42V97.97H716.851V117.23C726.481 109.58 737.831 103.71 750.921 99.64C764.001 95.57 777.581 93.53 791.661 93.53C804.741 93.53 818.011 95.38 831.471 99.08C844.921 102.78 857.211 108.59 868.321 116.49C879.431 124.39 888.381 134.7 895.171 147.41C901.961 160.13 905.351 175.37 905.351 193.15C905.351 210.93 901.831 226.11 894.801 238.7C887.761 251.29 878.631 261.6 867.401 269.62C856.161 277.65 843.881 283.51 830.551 287.21C817.221 290.91 804.261 292.76 791.671 292.76C778.341 292.76 765.251 291.03 752.421 287.58C739.581 284.13 728.101 278.69 717.981 271.29V349.43H646.141L646.121 349.42ZM717.961 196.11C717.961 207.47 720.861 216.66 726.661 223.7C732.461 230.74 739.861 235.86 748.881 239.07C757.891 242.28 766.961 243.88 776.101 243.88C786.711 243.88 796.281 241.97 804.801 238.14C813.321 234.32 820.171 228.76 825.351 221.48C830.531 214.2 833.131 205.37 833.131 195V191.3C833.131 175.5 827.581 163.4 816.471 155.01C805.361 146.62 791.901 142.42 776.101 142.42C766.961 142.42 757.891 143.96 748.881 147.05C739.861 150.14 732.461 155.2 726.661 162.23C720.861 169.27 717.961 178.59 717.961 190.19V196.12V196.11Z" fill="black"/>
<path d="M964.601 353.87C959.421 353.87 952.931 353.62 945.161 353.13C937.381 352.63 929.421 351.65 921.271 350.17V302.77C929.421 303.51 938.361 304.12 948.121 304.62C957.871 305.11 966.881 304.37 975.151 302.4C983.421 300.42 989.411 296.11 993.111 289.44L995.701 284.63L900.531 97.99H974.971L1030.52 220.57L1086.07 97.99H1159.39L1066.07 285.38C1057.43 302.66 1048.35 316.3 1038.85 326.3C1029.34 336.3 1018.6 343.39 1006.63 347.59C994.651 351.79 980.641 353.89 964.601 353.89V353.87Z" fill="black"/>
<path d="M1440.42 97.97H1346.36L1262.67 168.7L1294.88 214.99L1345.24 288.32H1433.38L1349.69 172.03L1440.42 97.97Z" fill="black"/>
<path d="M1250.86 25.3799H1179.01V292.76H1250.86V25.3799Z" fill="black"/>
<path d="M1546.3 292.76C1529.26 292.76 1512.97 290.6 1497.42 286.28C1481.87 281.96 1467.98 275.6 1455.76 267.21C1443.54 258.82 1433.91 248.45 1426.87 236.1C1419.83 223.76 1416.32 209.44 1416.32 193.14C1416.32 171.42 1422.06 153.14 1433.54 138.33C1445.02 123.52 1460.63 112.35 1480.39 104.82C1500.14 97.29 1522.11 93.52 1546.31 93.52C1570.51 93.52 1592.42 97.29 1612.04 104.82C1631.67 112.35 1647.22 123.52 1658.7 138.33C1670.18 153.14 1675.92 171.42 1675.92 193.14C1675.92 209.43 1672.4 223.76 1665.37 236.1C1658.33 248.45 1648.71 258.82 1636.48 267.21C1624.26 275.61 1610.37 281.97 1594.82 286.28C1579.27 290.6 1563.09 292.76 1546.31 292.76H1546.3ZM1546.3 243.88C1563.58 243.88 1577.47 239.38 1587.96 230.36C1598.45 221.35 1603.7 209.56 1603.7 194.99V191.29C1603.7 176.48 1598.45 164.63 1587.96 155.74C1577.46 146.85 1563.58 142.41 1546.3 142.41C1529.02 142.41 1515.07 146.85 1504.45 155.74C1493.83 164.63 1488.53 176.48 1488.53 191.29V194.99C1488.53 209.56 1493.84 221.35 1504.45 230.36C1515.06 239.38 1529.01 243.88 1546.3 243.88Z" fill="black"/>
<path d="M1810.71 292.76C1798.12 292.76 1785.16 290.91 1771.83 287.21C1758.5 283.51 1746.21 277.65 1734.98 269.62C1723.74 261.6 1714.61 251.29 1707.58 238.7C1700.54 226.11 1697.03 210.93 1697.03 193.15C1697.03 175.37 1700.42 160.13 1707.21 147.41C1714 134.7 1722.95 124.39 1734.06 116.49C1745.17 108.59 1757.45 102.79 1770.91 99.0799C1784.36 95.3799 1797.63 93.5299 1810.72 93.5299C1824.54 93.5299 1837.94 95.5099 1850.9 99.4599C1863.86 103.41 1875.03 109.09 1884.41 116.49V25.3899H1956.25V288.32H1885.52V270.17C1875.64 278.32 1864.23 284.12 1851.27 287.58C1838.31 291.03 1824.79 292.76 1810.72 292.76H1810.71ZM1769.24 194.99C1769.24 205.36 1771.83 214.19 1777.02 221.47C1782.2 228.76 1789.11 234.31 1797.76 238.13C1806.4 241.96 1815.91 243.87 1826.28 243.87C1835.66 243.87 1844.8 242.27 1853.68 239.06C1862.57 235.85 1869.91 230.73 1875.71 223.69C1881.51 216.65 1884.41 207.46 1884.41 196.1V190.17C1884.41 178.57 1881.51 169.25 1875.71 162.21C1869.91 155.17 1862.56 150.12 1853.68 147.03C1844.79 143.95 1835.66 142.4 1826.28 142.4C1810.48 142.4 1797.02 146.6 1785.92 154.99C1774.81 163.39 1769.26 175.48 1769.26 191.28V194.98L1769.24 194.99Z" fill="black"/>
</svg>
